<mxfile host="app.diagrams.net" agent="Mozilla/5.0 (Macintosh; Intel Mac OS X 10_15_7) AppleWebKit/537.36 (KHTML, like Gecko) Chrome/127.0.0.0 Safari/537.36" version="24.7.6">
  <diagram id="C5RBs43oDa-KdzZeNtuy" name="Page-1">
    <mxGraphModel dx="954" dy="557" grid="1" gridSize="10" guides="1" tooltips="1" connect="1" arrows="1" fold="1" page="1" pageScale="1" pageWidth="827" pageHeight="1169" math="0" shadow="0">
      <root>
        <mxCell id="WIyWlLk6GJQsqaUBKTNV-0" />
        <mxCell id="WIyWlLk6GJQsqaUBKTNV-1" parent="WIyWlLk6GJQsqaUBKTNV-0" />
        <mxCell id="gAMTQTp1d-hBrhkFOfOa-3" value="" style="edgeStyle=orthogonalEdgeStyle;rounded=0;orthogonalLoop=1;jettySize=auto;html=1;" edge="1" parent="WIyWlLk6GJQsqaUBKTNV-1" source="gAMTQTp1d-hBrhkFOfOa-0" target="gAMTQTp1d-hBrhkFOfOa-2">
          <mxGeometry relative="1" as="geometry" />
        </mxCell>
        <mxCell id="gAMTQTp1d-hBrhkFOfOa-0" value="inicio" style="ellipse;whiteSpace=wrap;html=1;aspect=fixed;" vertex="1" parent="WIyWlLk6GJQsqaUBKTNV-1">
          <mxGeometry x="370" y="280" width="80" height="80" as="geometry" />
        </mxCell>
        <mxCell id="gAMTQTp1d-hBrhkFOfOa-7" value="" style="edgeStyle=orthogonalEdgeStyle;rounded=0;orthogonalLoop=1;jettySize=auto;html=1;" edge="1" parent="WIyWlLk6GJQsqaUBKTNV-1" source="gAMTQTp1d-hBrhkFOfOa-2" target="gAMTQTp1d-hBrhkFOfOa-6">
          <mxGeometry relative="1" as="geometry" />
        </mxCell>
        <mxCell id="gAMTQTp1d-hBrhkFOfOa-2" value="mostrar mensaje:&quot;por favor ingrese una palabra&quot;" style="shape=parallelogram;perimeter=parallelogramPerimeter;whiteSpace=wrap;html=1;fixedSize=1;fillColor=#ffe6cc;strokeColor=#d79b00;" vertex="1" parent="WIyWlLk6GJQsqaUBKTNV-1">
          <mxGeometry x="325" y="420" width="170" height="70" as="geometry" />
        </mxCell>
        <mxCell id="gAMTQTp1d-hBrhkFOfOa-9" value="" style="edgeStyle=orthogonalEdgeStyle;rounded=0;orthogonalLoop=1;jettySize=auto;html=1;" edge="1" parent="WIyWlLk6GJQsqaUBKTNV-1" source="gAMTQTp1d-hBrhkFOfOa-6" target="gAMTQTp1d-hBrhkFOfOa-8">
          <mxGeometry relative="1" as="geometry" />
        </mxCell>
        <mxCell id="gAMTQTp1d-hBrhkFOfOa-6" value="&lt;span style=&quot;color: rgb(26, 26, 26);&quot;&gt;definir la variable cantidad_letras y asignarle la longitud de palabra_ingresada&lt;/span&gt;" style="rounded=1;whiteSpace=wrap;html=1;fillColor=#dae8fc;strokeColor=#6c8ebf;" vertex="1" parent="WIyWlLk6GJQsqaUBKTNV-1">
          <mxGeometry x="335" y="547" width="150" height="75" as="geometry" />
        </mxCell>
        <mxCell id="gAMTQTp1d-hBrhkFOfOa-11" value="" style="edgeStyle=orthogonalEdgeStyle;rounded=0;orthogonalLoop=1;jettySize=auto;html=1;" edge="1" parent="WIyWlLk6GJQsqaUBKTNV-1" source="gAMTQTp1d-hBrhkFOfOa-8" target="gAMTQTp1d-hBrhkFOfOa-10">
          <mxGeometry relative="1" as="geometry" />
        </mxCell>
        <mxCell id="gAMTQTp1d-hBrhkFOfOa-8" value="&lt;span style=&quot;color: rgb(26, 26, 26);&quot;&gt;mostrar mensaje: &quot;la palabra ingresada tiene&quot;, cantidad_letras, &quot;letras.&quot;&lt;/span&gt;" style="shape=parallelogram;perimeter=parallelogramPerimeter;whiteSpace=wrap;html=1;fixedSize=1;rounded=1;fillColor=#ffe6cc;strokeColor=#d79b00;" vertex="1" parent="WIyWlLk6GJQsqaUBKTNV-1">
          <mxGeometry x="305" y="710" width="210" height="82.5" as="geometry" />
        </mxCell>
        <mxCell id="gAMTQTp1d-hBrhkFOfOa-10" value="fin" style="ellipse;whiteSpace=wrap;html=1;rounded=1;" vertex="1" parent="WIyWlLk6GJQsqaUBKTNV-1">
          <mxGeometry x="370" y="850" width="80" height="80" as="geometry" />
        </mxCell>
      </root>
    </mxGraphModel>
  </diagram>
</mxfile>
